<?xml version="1.0" encoding="UTF-8"?>
<svg id="Layer_2" data-name="Layer 2" xmlns="http://www.w3.org/2000/svg" width="214.7" height="233.71" viewBox="0 0 214.7 233.71">
  <defs>
    <style>
      .cls-1 {
        fill: #1d1d1d;
        stroke-width: 0px;
      }

      .cls-2 {
        fill: #fff5eb;
        stroke: #1d1d1d;
        stroke-miterlimit: 10;
        stroke-width: 2px;
      }
    </style>
  </defs>
  <g id="Layer_1-2" data-name="Layer 1">
    <path class="cls-2" d="M109.71,17.61c-.46-.12-.29-1.48-.54-3.13-.75-4.93-4.65-8.18-5.72-9.06-3.07-2.55-9.86-6.24-14.59-3.39-3.13,1.89-3.85,5.73-4.17,7.45-.88,4.69.99,8.56,2.08,10.84,1.06,2.21,2.14,3.56,4.17,6.1,4.02,5.03,4.75,4.48,8.33,8.81,4.11,4.96,5.89,9.01,9.03,8.81.22-.01.39-.03.59-.09,1.01-.29,2.03-1.39,6.35-5.33.42-.38,1.7-1.57,4.33-3.87,0,0,2.23-1.95,10.25-8.32h0c5.61-6.36,6.39-7.23,6.95-8.81,1.48-4.24.28-10.7-4.17-13.55-5.3-3.4-12.9-.2-16.67,3.39-4.34,4.14-5.26,10.41-6.25,10.16Z"/>
    <path class="cls-2" d="M80.03,45.75c-.12.46-1.48.28-3.13.54-4.93.75-8.18,4.65-9.06,5.71-2.55,3.07-6.24,9.86-3.39,14.58,1.89,3.13,5.73,3.85,7.45,4.17,4.69.88,8.56-.99,10.84-2.08,2.21-1.06,3.56-2.14,6.1-4.17,5.03-4.02,4.48-4.75,8.81-8.33,4.96-4.11,9.01-5.89,8.81-9.03-.01-.22-.03-.39-.09-.59-.29-1.01-1.39-2.03-5.33-6.35-.38-.42-1.57-1.7-3.87-4.33,0,0-1.95-2.23-8.32-10.26h0c-6.35-5.61-7.22-6.4-8.8-6.95-4.24-1.48-10.7-.28-13.55,4.16-3.4,5.3-.2,12.9,3.38,16.67,4.14,4.34,10.41,5.26,10.16,6.25Z"/>
    <path class="cls-2" d="M137.84,47.29c.12-.46,1.48-.29,3.13-.54,4.93-.75,8.18-4.66,9.06-5.72,2.55-3.07,6.24-9.86,3.38-14.59-1.89-3.13-5.74-3.85-7.45-4.17-4.69-.88-8.56.99-10.84,2.09-2.21,1.07-3.56,2.15-6.1,4.17-5.03,4.02-4.48,4.75-8.8,8.34-4.96,4.11-9.01,5.89-8.8,9.03.01.22.03.39.09.59.29,1.01,1.39,2.03,5.33,6.35.38.42,1.57,1.7,3.87,4.33,0,0,1.95,2.23,8.32,10.25h0c6.36,5.61,7.23,6.39,8.81,6.94,4.24,1.48,10.7.27,13.55-4.17,3.4-5.3.2-12.9-3.39-16.67-4.14-4.34-10.41-5.26-10.16-6.25Z"/>
    <path class="cls-2" d="M107.48,70.33c.47.09.38,1.46.74,3.09,1.07,4.87,5.18,7.85,6.3,8.66,3.23,2.34,10.25,5.58,14.78,2.42,3-2.09,3.46-5.97,3.67-7.71.57-4.74-1.55-8.48-2.79-10.68-1.21-2.13-2.37-3.41-4.56-5.81-4.34-4.76-5.03-4.16-8.89-8.24-4.43-4.68-6.47-8.6-9.59-8.19-.22.03-.38.06-.59.13-.99.35-1.93,1.52-5.99,5.74-.39.41-1.59,1.68-4.07,4.15,0,0-2.1,2.09-9.69,8.98-5.18,6.71-5.91,7.63-6.35,9.24-1.2,4.33.43,10.69,5.05,13.24,5.51,3.04,12.89-.65,16.41-4.47,4.06-4.42,4.56-10.73,5.57-10.55Z"/>
    <path class="cls-1" d="M25.12,98.96c-10.04,14.72-4.51,35.21,8.49,46.19,6.46,5.45,14.64,8.4,23.11,8.04,4.37-.18,8.67-1.16,12.69-2.89,2.08-.9,4.08-1.99,5.94-3.29s3.66-2.71,4.78-4.66c2.3-3.99.02-8.52-4.15-9.94-4.85-1.65-7.75,2.87-11.79,4.49l.87,2.06c4.48-2.38,4.89-10.31,2.3-14.17-1.58-2.34-4.5-3-7.15-2.53-3.25.58-5.82,2.82-6.92,5.92-.67,1.89-.8,3.95-.93,5.94-.14,2.19-.19,4.39-.15,6.59.09,4.14.51,8.27,1.26,12.34,1.49,8.1,4.37,15.97,8.58,23.05,3.65,6.15,8.72,12.69,16.53,12.85,6.25.13,13.08-4.25,12.58-11.13-.19-2.66-1.58-5.23-4.2-6.15-3.51-1.23-7.13.85-9.76,3.01-5.08,4.18-8.78,9.87-8.9,16.58-.11,5.97,2.15,11.73,4.19,17.23,2.25,6.07,4.61,12.3,4.75,18.85.03,1.66-.07,3.31-.34,4.94-.23,1.42,1.93,2.03,2.17.6,1.89-11.51-3.76-21.68-6.98-32.35-1.45-4.8-2.29-9.91-.56-14.75.98-2.75,2.74-5.09,4.75-7.18,2.27-2.35,5.5-5.41,9.05-5.01,2.48.28,3.62,2.64,3.59,4.92-.04,2.84-1.72,5.19-4.11,6.61-2.55,1.5-5.74,1.95-8.62,1.28-3.21-.74-5.85-2.87-7.97-5.32-4.59-5.32-7.82-12.16-10.05-18.77-2.34-6.96-3.58-14.26-3.73-21.6-.07-3.61-.2-7.61.74-11.13.79-2.92,3.13-5.01,6.19-5.22,2.45-.16,4.17,1.06,4.83,3.38s.57,4.85-.34,6.98c-.41.97-1.02,1.79-1.96,2.28-1.1.58-.33,2.54.87,2.06,1.68-.67,3.1-1.68,4.57-2.73,1.3-.93,2.8-2.11,4.48-2.07s3.37,1,4.28,2.37c1.08,1.62.82,3.53-.26,5.08-1.2,1.73-3.07,3.01-4.82,4.12-1.65,1.05-3.41,1.96-5.23,2.69-3.65,1.46-7.55,2.28-11.47,2.4-15.48.47-28.75-10.98-32.87-25.56-2.42-8.58-1.49-17.86,3.59-25.31.82-1.2-1.13-2.33-1.94-1.14h0Z"/>
    <path class="cls-2" d="M27.29,66.84c-.26-.06-.16-.83-.3-1.76-.42-2.77-2.64-4.59-3.25-5.09-1.74-1.43-5.6-3.51-8.28-1.9-1.78,1.06-2.18,3.22-2.37,4.19-.5,2.64.56,4.81,1.18,6.09.6,1.24,1.22,2,2.37,3.43,2.28,2.83,2.7,2.52,4.73,4.95,2.33,2.79,3.35,5.06,5.13,4.95.13,0,.22-.02.34-.05.58-.16,1.15-.78,3.61-3,.24-.21.96-.88,2.46-2.17,0,0,1.27-1.09,5.82-4.68h0c3.19-3.57,3.63-4.06,3.94-4.95.84-2.38.16-6.01-2.37-7.61-3.01-1.91-7.33-.11-9.47,1.9-2.47,2.33-2.99,5.85-3.55,5.71Z"/>
    <path class="cls-2" d="M10.44,82.65c-.07.26-.84.16-1.78.3-2.8.42-4.64,2.61-5.15,3.21-1.45,1.72-3.54,5.54-1.92,8.19,1.07,1.76,3.26,2.16,4.23,2.34,2.67.49,4.86-.55,6.15-1.17,1.25-.6,2.02-1.2,3.46-2.34,2.86-2.26,2.54-2.67,5-4.68,2.82-2.31,5.12-3.31,5-5.07,0-.13-.02-.22-.05-.33-.16-.57-.79-1.14-3.03-3.57-.22-.24-.89-.95-2.2-2.43,0,0-1.1-1.25-4.72-5.76h0c-3.61-3.15-4.1-3.59-5-3.9-2.41-.83-6.07-.16-7.69,2.34-1.93,2.98-.12,7.25,1.92,9.37,2.35,2.44,5.91,2.96,5.77,3.51Z"/>
    <path class="cls-2" d="M43.27,83.51c.07-.26.84-.16,1.78-.3,2.8-.42,4.64-2.62,5.14-3.21,1.45-1.73,3.54-5.54,1.92-8.2-1.07-1.76-3.26-2.16-4.23-2.34-2.67-.49-4.86.56-6.15,1.17-1.25.6-2.02,1.21-3.46,2.34-2.86,2.26-2.54,2.67-5,4.68-2.82,2.31-5.12,3.31-5,5.07,0,.13.02.22.05.33.16.57.79,1.14,3.03,3.57.22.24.89.95,2.2,2.43,0,0,1.11,1.25,4.73,5.76h0c3.61,3.15,4.1,3.59,5,3.9,2.41.83,6.07.15,7.69-2.34,1.93-2.98.11-7.25-1.93-9.36-2.35-2.44-5.91-2.95-5.77-3.51Z"/>
    <path class="cls-2" d="M26.03,96.46c.27.05.22.82.42,1.74.61,2.74,2.94,4.41,3.58,4.87,1.83,1.32,5.82,3.13,8.39,1.36,1.7-1.17,1.97-3.36,2.08-4.33.32-2.66-.88-4.76-1.58-6-.69-1.2-1.35-1.92-2.59-3.26-2.46-2.67-2.86-2.34-5.05-4.63-2.51-2.63-3.68-4.83-5.44-4.6-.13.02-.22.03-.33.07-.56.2-1.1.85-3.4,3.22-.22.23-.9.94-2.31,2.33,0,0-1.19,1.17-5.5,5.04-2.94,3.77-3.35,4.29-3.61,5.19-.68,2.43.24,6.01,2.87,7.44,3.13,1.71,7.32-.36,9.32-2.51,2.31-2.48,2.59-6.03,3.16-5.93Z"/>
    <path class="cls-1" d="M105.91,74.7c-5.76,10.92-1.94,23.6,4,33.58,6.31,10.59,15.74,18.92,22.05,29.52,3.16,5.31,5.79,11.53,5.71,17.82s-4.31,11.14-8.67,15.49c-3.94,3.93-7.5,7.99-10.04,12.98s-3.93,9.92-4.61,15.2c-1.53,11.97,1.53,24.42,9.03,33.95.9,1.14,2.48-.47,1.59-1.59-6.61-8.39-9.42-19.32-8.62-29.89.4-5.25,1.71-10.49,3.93-15.27,2.35-5.05,5.7-9.2,9.61-13.11s8.07-7.95,9.47-13.44c1.55-6.08-.3-12.67-2.82-18.24-4.95-10.94-13.82-19.32-20.88-28.84-7.53-10.16-14.32-24.72-7.83-37.04.67-1.28-1.27-2.42-1.94-1.14h0Z"/>
    <path class="cls-1" d="M190.21,134.93c3.46,8.05-1.13,17.07-7.45,22.22-1.81,1.47-3.83,2.64-5.97,3.54-1.24.53-2.52.98-3.79,1.42-1.06.36-3.22,1.51-4.26.79-.7-.48-.75-1.58-.39-2.28.57-1.11,1.97-1.61,3.14-1.75,2.03-.25,4.03.46,5.63,1.69,3.45,2.66,5.02,7.25,4.23,11.48-.91,4.83-3.99,8.91-7.44,12.26s-7.77,6.26-10.85,10.22c-2.85,3.67-4.3,8.21-4.02,12.86.63,10.43,9.93,18.49,20.36,17.63,1.43-.12,1.45-2.37,0-2.25-5.08.42-10.16-1.47-13.7-5.15s-5.16-9.4-4.15-14.56c1.09-5.6,5.02-9.42,9.19-12.97,4.09-3.48,8.16-7.04,10.73-11.84,2.33-4.34,3.17-9.39,1.18-14.01-1.73-4.01-5.42-7.45-9.95-7.65-2.23-.1-4.8.65-6.09,2.6-1.1,1.66-.94,4.12.65,5.42,2.15,1.76,5.46.01,7.67-.78,2.51-.9,4.98-1.94,7.21-3.43,8.45-5.64,14.31-16.65,10.02-26.6-.57-1.33-2.51-.18-1.94,1.14h0Z"/>
    <path class="cls-2" d="M192.71,105.67c-.22-.06-.13-.73-.25-1.54-.35-2.43-2.18-4.02-2.68-4.45-1.44-1.25-4.63-3.07-6.84-1.67-1.47.93-1.8,2.82-1.95,3.66-.41,2.31.46,4.21.98,5.33.5,1.09,1.01,1.75,1.95,3,1.88,2.47,2.23,2.2,3.91,4.33,1.93,2.44,2.76,4.43,4.24,4.33.11,0,.18-.01.28-.04.48-.14.95-.68,2.98-2.62.2-.19.8-.77,2.03-1.9,0,0,1.05-.96,4.81-4.09h0c2.63-3.12,3-3.55,3.26-4.33.69-2.08.13-5.26-1.95-6.66-2.49-1.67-6.05-.1-7.82,1.67-2.04,2.04-2.47,5.12-2.93,5Z"/>
    <path class="cls-2" d="M178.79,119.5c-.05.23-.69.14-1.47.26-2.31.37-3.84,2.29-4.25,2.81-1.2,1.51-2.93,4.85-1.59,7.17.89,1.54,2.69,1.89,3.49,2.05,2.2.43,4.02-.48,5.08-1.02,1.04-.52,1.67-1.05,2.86-2.05,2.36-1.97,2.1-2.34,4.13-4.1,2.33-2.02,4.23-2.9,4.13-4.44,0-.11-.01-.19-.04-.29-.13-.5-.65-1-2.5-3.12-.18-.21-.74-.83-1.82-2.13,0,0-.91-1.1-3.9-5.04h0c-2.98-2.76-3.39-3.14-4.13-3.42-1.99-.73-5.02-.14-6.35,2.05-1.6,2.6-.1,6.34,1.59,8.2,1.94,2.14,4.88,2.59,4.77,3.07Z"/>
    <path class="cls-2" d="M205.91,120.26c.05-.23.69-.14,1.47-.26,2.31-.37,3.84-2.29,4.25-2.81,1.2-1.51,2.93-4.85,1.59-7.17-.89-1.54-2.69-1.89-3.5-2.05-2.2-.43-4.02.49-5.08,1.03-1.04.52-1.67,1.05-2.86,2.05-2.36,1.98-2.1,2.34-4.13,4.1-2.33,2.02-4.23,2.9-4.13,4.44,0,.11.01.19.04.29.13.5.65,1,2.5,3.12.18.21.74.83,1.82,2.13,0,0,.91,1.1,3.9,5.04h0c2.98,2.76,3.39,3.14,4.13,3.41,1.99.73,5.02.13,6.35-2.05,1.59-2.61.09-6.34-1.59-8.19-1.94-2.13-4.88-2.58-4.77-3.07Z"/>
    <path class="cls-2" d="M191.67,131.59c.22.04.18.72.35,1.52.5,2.4,2.43,3.86,2.95,4.26,1.52,1.15,4.81,2.74,6.93,1.19,1.41-1.03,1.62-2.94,1.72-3.79.27-2.33-.73-4.17-1.31-5.25-.57-1.05-1.11-1.68-2.14-2.86-2.03-2.34-2.36-2.04-4.17-4.05-2.08-2.3-3.04-4.23-4.5-4.03-.1.01-.18.03-.27.06-.47.17-.91.75-2.81,2.82-.18.2-.75.83-1.91,2.04,0,0-.98,1.03-4.54,4.41-2.43,3.3-2.77,3.75-2.98,4.54-.56,2.13.2,5.26,2.37,6.51,2.58,1.5,6.05-.32,7.7-2.2,1.9-2.17,2.14-5.28,2.61-5.19Z"/>
  </g>
</svg>