<?xml version="1.0" encoding="UTF-8"?>
<svg id="Layer_2" data-name="Layer 2" xmlns="http://www.w3.org/2000/svg" width="362" height="323.14" viewBox="0 0 362 323.14">
  <defs>
    <style>
      .cls-1 {
        fill: #fff1f0;
      }

      .cls-1, .cls-2, .cls-3 {
        stroke: #1d1d1d;
        stroke-miterlimit: 10;
        stroke-width: 4px;
      }

      .cls-4 {
        fill: #1d1d1d;
        stroke-width: 0px;
      }

      .cls-2 {
        fill: #f7c7d9;
      }

      .cls-3 {
        fill: #fff5eb;
      }
    </style>
  </defs>
  <g id="Layer_1-2" data-name="Layer 1">
    <path class="cls-3" d="M174.91,67.5c-19.01-1.83-46.34-1.55-101-1-18.18.18-34.17.57-46.5,11.5-15.21,13.48-15.8,34.98-16.5,52.5-4.9,122.62-19.32,151.69,4,170,5.08,3.99,10.34,6.2,38,10,54.38,7.47,80.2,5.25,125.5,7.5,46.29,2.3,92.7.96,139,3,6.78.3,19.22.88,29-7,12.14-9.78,12.59-30.98,13-73,.43-44.21.75-66.31.5-72.5-2.35-58.16-3.82-87.38-18.5-94.5-12.71-6.16-46.5-5.5-46.5-5.5h0c-51.05,3.79-91.73,1.72-120-1Z"/>
    <path class="cls-1" d="M89.41,135c-4.81-4.81-5-5-5-5-6.13-6.14-5.96-45.55-6-53-.15-32.23-6.86-46.04,4.51-61.09.14-.19,1.78-2.91,4.52-5,9.42-7.21,28.17-5.58,93.7-7.33,74.09-1.97,99.06-5.35,110.25,13.45,2.47,4.15,2.73,16.16,3.01,40.35.33,29.25-1.8,58.97-1.98,61.46,0,.02,0,.09-.01.17-.35,4.22-3.96,7.14-5,8-9.43,7.83-17.17,17.5-26,26-3.73,3.59-6.36,6.29-9,9-13.06,13.41-14.75,16.71-22,23-6.2,5.38-5.33,3.29-17,12-16.98,12.68-18.91,17.18-25,17-4.87-.15-6.01-3.1-19-14-7.37-6.19-3.95-2.67-25-19-10.08-7.82-6.58-5.3-24-19,0,0-18.68-14.69-26-22-.02-.02-1.55-1.55-5-5Z"/>
    <path class="cls-4" d="M114.5,87.05c10.17-1.84,21.71-3.89,31.57.36,4.33,1.87,7.75,5.21,11.93,7.32,4.49,2.27,9.23,2.24,13.9.48,5.06-1.91,9.62-4.85,14.75-6.61s10.78-2.82,16.32-2.58,10.84,2.45,16.31,3.98c5.09,1.43,10.39,1.62,15.63,1.14,12.21-1.13,24.12-5.5,36.5-4.34.96.09.95-1.41,0-1.5-10.97-1.02-21.64,2.27-32.39,3.85-5.45.8-11.07,1.15-16.51.09s-10.67-3.66-16.31-4.42c-5.26-.71-10.63-.19-15.77,1.1s-9.97,3.58-14.77,5.97-10.06,4.31-15.41,2.23c-4.52-1.76-8.02-5.37-12.35-7.5-10.43-5.14-22.87-2.99-33.82-1.02-.95.17-.55,1.62.4,1.45h0Z"/>
    <path class="cls-4" d="M112.61,70.53c9.91-3.09,20.52-3.92,30.82-2.83s20.01,5.38,30.32,6.69,20.6-1.65,30.77-3.76c5.13-1.07,10.35-1.85,15.6-1.64,5.55.22,10.95,1.53,16.37,2.63,11.65,2.37,23.62,2.5,35.12-.8.93-.27.53-1.71-.4-1.45-10.49,3.01-21.6,3.23-32.29,1.2-5.17-.98-10.29-2.28-15.54-2.84s-10.28-.17-15.37.7c-10.32,1.77-20.45,5.34-31.05,4.75s-20.46-5.23-30.94-6.67c-11.23-1.55-22.96-.81-33.81,2.57-.92.29-.53,1.73.4,1.45h0Z"/>
    <path class="cls-4" d="M26.44,79.29c18.25,18.18,37.02,35.82,56.29,52.92,19.33,17.15,39.16,33.74,59.44,49.76,20.3,16.03,41.06,31.49,62.23,46.36,21.29,14.94,43.01,29.29,65.11,43,22.17,13.76,44.73,26.89,67.64,39.38,2.83,1.54,5.66,3.07,8.5,4.59,1.7.91,3.22-1.68,1.51-2.59-23-12.34-45.66-25.31-67.94-38.93s-43.71-27.56-64.97-42.24c-21.39-14.78-42.37-30.16-62.88-46.14-20.32-15.83-40.2-32.24-59.59-49.2-19.32-16.9-38.16-34.36-56.48-52.35-2.26-2.22-4.51-4.45-6.76-6.68-1.37-1.36-3.49.76-2.12,2.12h0Z"/>
    <path class="cls-4" d="M340.35,72.94c-17.51,20.97-38.91,38.23-58.43,57.23-18.84,18.33-35.99,38.32-55.51,55.96-18.51,16.72-39.19,30.52-61.11,42.34-22.87,12.34-46.77,22.68-70.95,32.15s-50.9,18.81-76.57,27.6c-3.26,1.12-6.51,2.23-9.77,3.34-1.82.62-1.04,3.52.8,2.89,26.01-8.89,52.02-17.8,77.7-27.6,24.45-9.33,48.67-19.44,71.97-31.4,21.9-11.24,42.98-24.2,61.87-40.06,20.32-17.06,37.82-37.03,56.42-55.86s40.68-36.77,59.18-57c2.23-2.44,4.41-4.93,6.53-7.47,1.23-1.47-.88-3.61-2.12-2.12h0Z"/>
    <path class="cls-2" d="M187.91,207.5c-.66-.17-.41-2.18-.77-4.63-1.08-7.28-6.7-12.07-8.23-13.37-4.42-3.76-14.2-9.21-21-5-4.5,2.79-5.54,8.47-6,11-1.26,6.93,1.42,12.64,3,16,1.53,3.26,3.09,5.26,6,9,5.78,7.43,6.84,6.61,12,13,5.92,7.33,8.48,13.3,13,13,.32-.02.56-.04.85-.13,1.46-.42,2.92-2.05,9.15-7.87.6-.56,2.44-2.32,6.24-5.71,0,0,3.21-2.87,14.76-12.29h0c8.08-9.38,9.21-10.67,10-13,2.13-6.26.4-15.79-6-20-7.63-5.02-18.58-.3-24,5-6.25,6.11-7.57,15.37-9,15Z"/>
    <path class="cls-4" d="M148.2,30.88c.59-1.07,1.11-2.17,1.56-3.31h-.72c1.24,3.1,1.77,6.4,2.03,9.72.13,1.62.21,3.24.26,4.86.05,1.49-.18,4.41-2.4,4.1-.47-.07-.68.66-.2.72,4.03.56,3.35-5.22,3.22-7.59-.22-4.08-.66-8.19-2.19-12.01-.14-.35-.58-.36-.72,0-.42,1.08-.92,2.12-1.48,3.13-.23.42.41.8.65.38h0Z"/>
    <path class="cls-4" d="M154.31,27.85c-.07,6.73-2.17,15.28,3.61,20.4.36.32.89-.21.53-.53-5.6-4.96-3.46-13.37-3.39-19.87,0-.48-.75-.48-.75,0h0Z"/>
    <path class="cls-4" d="M151.6,38.55h2.68c.2,0,.38-.17.38-.37s-.17-.37-.38-.38h-2.68c-.2,0-.38.17-.38.37s.17.37.38.38h0Z"/>
    <path class="cls-4" d="M157.44,39.76c.93.14,1.97.29,2.8-.25.64-.41,1.07-1.15.87-1.92-.19-.73-.9-1.24-1.62-1.36s-1.46.16-2.01.64c-1.22,1.08-1.39,2.88-.78,4.32.34.81.88,1.51,1.49,2.13.65.65,1.4,1.3,2.28,1.6.94.33,1.94.07,2.57-.71.69-.85.74-1.95.55-2.98-.09-.47-.81-.27-.72.2.13.7.13,1.47-.25,2.09s-1,.91-1.69.75-1.28-.63-1.79-1.09-.95-.93-1.32-1.49c-.65-1-.97-2.22-.47-3.36.42-.95,1.53-1.81,2.56-1.16.61.38.66,1.1.11,1.57-.65.56-1.6.41-2.37.29-.47-.07-.68.65-.2.72h0Z"/>
    <path class="cls-4" d="M163.17,38.37c1.35,3.3,2.71,6.6,4.05,9.91,1.24,3.05,2.48,6.51,1.27,9.78s-5.52,5.01-7.88,1.78c-2.2-3.01-.94-6.87.15-10.05.16-.46-.57-.65-.72-.2-1.19,3.48-2.43,7.69.13,10.89,1.91,2.39,5.18,2.41,7.37.38,2.7-2.5,2.48-6.62,1.48-9.85-1.35-4.37-3.4-8.6-5.13-12.83-.18-.44-.91-.25-.72.2h0Z"/>
    <path class="cls-4" d="M163.57,35.9c-.2-.51-.44-1-.73-1.46l-.51.51c.07.03.14.07.2.11.02.02.05.03.07.05.02.01.03.02.05.03-.04-.03-.04-.03,0,0,.11.09.21.18.29.29.06.07-.02-.04.02.03.02.03.04.06.07.09.04.06.07.11.1.17.02.03.03.07.05.1.03.07-.02-.06,0,.02.03.07.05.15.07.22.04.15.2.28.36.28.15,0,.34-.11.36-.28.02-.15.06-.31.1-.45.02-.07.05-.14.07-.2.03-.08-.02.05.01-.02.02-.04.03-.08.05-.11.06-.13.14-.25.22-.37.02-.03.05-.07.07-.1-.05.07,0,0,.02-.02.05-.06.11-.12.17-.18l-.64-.27s0,.08,0,.12c0,.02,0,.04,0,.06,0-.05,0-.06,0-.03-.01.07-.03.14-.05.21-.02.06-.04.13-.07.19.04-.08,0,0,0,.02-.02.03-.03.07-.05.1-.03.06-.07.11-.11.17-.02.03-.02.03,0,0-.01.01-.02.03-.04.04-.02.02-.04.04-.06.06-.05.05-.09.09-.14.14-.01.01-.03.02-.04.04.04-.03.04-.03,0,0-.03.02-.06.04-.09.06l.51.13c-.13-.21-.32-.4-.55-.5-.18-.08-.41-.06-.51.13-.09.16-.06.43.13.51.04.02.07.03.11.05.02.01.03.02.05.03.06.04-.02-.03,0,0,.03.03.06.05.08.08,0,0,.04.06.02.02-.03-.04.02.04.02.04.11.17.34.25.51.13.62-.39,1.01-1.08,1.03-1.81,0-.33-.42-.49-.64-.27-.48.49-.81,1.13-.91,1.8h.72c-.18-.67-.64-1.26-1.26-1.56-.15-.07-.34-.07-.45.06-.11.12-.15.31-.06.45.13.21.26.43.37.65.06.11.11.22.16.33.02.05.05.11.07.16-.03-.07.01.04.02.04.01.03.03.06.04.1.07.18.25.33.46.26.18-.06.34-.27.26-.46h0Z"/>
    <path class="cls-4" d="M187.89,40.66c-.2,1.27-.41,2.61-.03,3.87.31,1.02.97,1.9,1.97,2.31.19.08.41-.08.46-.26.06-.21-.08-.39-.26-.46-.8-.33-1.29-1.15-1.49-1.95-.28-1.08-.09-2.23.07-3.31.03-.2-.05-.4-.26-.46-.18-.05-.43.06-.46.26h0Z"/>
    <path class="cls-4" d="M188.63,38.07c-.07-.37-.37-.67-.72-.77-.31-.09-.6.27-.42.55.32.5.69.98,1.1,1.4.15.16.49.15.59-.08.23-.55.47-1.1.7-1.66l-.7-.19s0,.09,0,.14c0,0-.01.08,0,.08-.01-.02.01-.08,0,0-.02.1-.04.19-.08.28-.02.07.02-.04,0,0-.01.02-.02.04-.03.06-.02.04-.04.08-.07.12-.01.02-.03.05-.05.07-.04.06.03-.03,0,0-.03.04-.07.08-.1.11-.14.14-.15.39,0,.53s.38.15.53,0c.36-.37.56-.88.55-1.4,0-.16-.11-.32-.28-.36-.15-.03-.36.02-.42.17-.23.55-.47,1.1-.7,1.66l.59-.08c-.19-.2-.38-.4-.55-.62,0-.01-.02-.02-.03-.04.03.03.03.04,0,0-.02-.02-.04-.05-.06-.08-.04-.05-.08-.11-.12-.16-.08-.12-.16-.23-.23-.35l-.42.55c.09.02,0,0,0,0,0,0,.06.03.07.03.01,0,.03.02.04.03l-.04-.03s.06.05.06.06c0,0,.02.02.02.03-.03-.04-.04-.05-.02-.03.01.02.03.04.04.06,0,.01.01.02.02.03-.02-.05-.02-.06-.02-.03,0,.03.02.06.02.08.04.19.28.32.46.26.2-.07.3-.25.26-.46h0Z"/>
    <path class="cls-4" d="M199.08,32.58c-.06,3.4-.12,6.82.25,10.21.08.74.18,1.47.31,2.2.12.69.19,1.47.51,2.1.41.81,1.59,1.2,2.1.26.23-.42-.41-.8-.65-.38-.55,1-1.07-1.28-1.12-1.49-.11-.56-.2-1.11-.28-1.68-.18-1.28-.28-2.56-.35-3.85-.12-2.46-.07-4.93-.03-7.39,0-.48-.74-.48-.75,0h0Z"/>
    <path class="cls-4" d="M201.4,31.84c1.27-.1,2.54-.1,3.8,0,.65.05,1.29.13,1.93.24.58.09,1.17.19,1.76.12.47-.06.48-.81,0-.75-.62.07-1.23-.04-1.84-.14s-1.23-.17-1.85-.22c-1.27-.1-2.54-.1-3.8,0-.48.04-.48.79,0,.75h0Z"/>
    <path class="cls-4" d="M209.37,40.26c-.14-.23.04-.49.27-.57.35-.13.78.06,1.08.24.51.31.98.85,1.03,1.47.08,1.12-1.25,1.63-1.99,2.17-.93.67-1.59,1.76-1.14,2.93.39,1.02,1.73,1.53,2.65.85.6-.44.72-1.23.81-1.91.13-.91.16-1.81.1-2.73h-.75c.12,1.15.37,2.29.81,3.37.34.82,1.09,1.7,2.08,1.32.45-.17.25-.89-.2-.72-.82.31-1.2-.85-1.39-1.43-.28-.82-.46-1.67-.55-2.54-.05-.47-.78-.49-.75,0,.06.83.04,1.66-.06,2.48-.08.6-.14,1.57-.89,1.7-.58.1-1.09-.29-1.21-.86-.13-.63.16-1.2.62-1.61.77-.68,1.87-1.02,2.38-1.97.61-1.14-.02-2.41-1.01-3.09-.57-.39-1.4-.66-2.05-.3-.55.3-.8,1.02-.47,1.57.25.41.9.04.65-.38h0Z"/>
    <path class="cls-4" d="M215.07,31.14c-.3,3.43-.22,6.88.24,10.29.24,1.74.57,3.46,1.01,5.16.24.95.52,2.2,1.64,2.43.47.1.67-.63.2-.72-.71-.15-.87-.99-1.04-1.59-.2-.74-.37-1.49-.53-2.24-.31-1.47-.55-2.96-.7-4.45-.31-2.95-.33-5.93-.07-8.88.04-.48-.71-.48-.75,0h0Z"/>
    <path class="cls-4" d="M219.94,30.37c-.58,3.22-.22,6.45.17,9.67.18,1.48.36,2.97.8,4.4s1.15,2.85,1.85,4.21c.22.43.87.05.65-.38-.67-1.31-1.34-2.62-1.78-4.03s-.63-3-.82-4.52c-.37-3.04-.7-6.11-.16-9.14.09-.47-.64-.67-.72-.2h0Z"/>
    <path class="cls-4" d="M221.65,41.89c1.94-1.19,3.43-3.01,4.24-5.13.17-.45-.55-.65-.72-.2-.73,1.94-2.12,3.61-3.89,4.69-.41.25-.03.9.38.65h0Z"/>
    <path class="cls-4" d="M221.98,41.73c2.29-.23,4.82.15,6.65,1.65.91.75,1.45,1.73,1.98,2.76s1.05,1.95,2,2.57c.41.26.78-.38.38-.65-1.04-.68-1.5-1.87-2.06-2.93s-1.25-1.93-2.21-2.62c-1.92-1.38-4.44-1.77-6.75-1.54-.48.05-.48.8,0,.75h0Z"/>
    <path class="cls-4" d="M204.65,31.58c-.18,5.41-.08,10.82.3,16.22.03.48.78.48.75,0-.38-5.4-.48-10.81-.3-16.22.02-.48-.73-.48-.75,0h0Z"/>
    <path class="cls-4" d="M182.45,29.24c-7.89-1.03-11.44,10.07-7.92,15.77,1.66,2.69,4.81,4.43,7.98,3.64,1.41-.35,2.72-1.17,3.57-2.36.79-1.1,1.28-2.77.21-3.85-.62-.62-1.55-.84-2.38-1.01-.93-.19-1.94-.32-2.83.09-1.77.81-1.56,2.5-.64,3.89.26.4.91.03.65-.38-.41-.63-.94-1.45-.47-2.19.52-.82,1.58-.91,2.44-.8,1.57.19,3.62.76,2.96,2.78-.77,2.39-3.73,3.61-6.06,3.21-6.12-1.05-7.14-8.68-4.93-13.4,1.34-2.87,4.13-5.06,7.42-4.63.48.06.47-.69,0-.75h0Z"/>
    <path class="cls-4" d="M191.13,40.1c.09,2.1.43,4.18,1.01,6.19.13.46.86.27.72-.2-.56-1.95-.89-3.96-.98-5.99-.02-.48-.77-.48-.75,0h0Z"/>
    <path class="cls-4" d="M192.3,41.83c.32-.77,1.17-1.29,2-1.28.52,0,1,.24,1.46.44.42.18,1.04.5,1.35-.03.24-.42-.41-.8-.65-.38.14-.24.14-.01.06-.08-.03-.03-.12-.04-.16-.06-.13-.05-.26-.11-.39-.17-.27-.12-.53-.24-.81-.32-.49-.16-1-.19-1.51-.08-.94.2-1.72.88-2.08,1.76-.08.19.08.41.26.46.22.06.38-.07.46-.26h0Z"/>
  </g>
</svg>