<svg width="660" height="458" viewBox="0 0 660 458" fill="none" xmlns="http://www.w3.org/2000/svg">
<path d="M469.441 299.989L69.3008 335.965C53.8121 337.347 39.3893 325.005 37.1269 308.376L1.27659 43.6818C-0.877037 27.743 9.78234 14.425 25.01 13.9246L419.537 1.01158C432.677 0.582737 445.272 12.1139 447.752 26.79L488.802 270.184C491.369 285.432 482.732 298.798 469.441 299.989Z" fill="#FDF5EC" stroke="url(#paint0_linear_92_77)" stroke-width="2" stroke-miterlimit="10"/>
<path d="M442.749 268.803L85.5074 297.345C73.0207 298.345 61.3607 287.958 59.5116 274.187L33.32 78.1565C31.5797 65.172 40.0637 54.3317 52.2023 53.879L400.155 40.966C410.836 40.5609 421.3 50.0194 423.584 62.0747L458.129 244.073C460.544 256.819 453.691 267.921 442.749 268.779V268.803Z" fill="#FDF2F0" stroke="url(#paint1_linear_92_77)" stroke-width="2" stroke-miterlimit="10"/>
<path d="M654.414 406.129L226.276 456.828C214.529 458.21 192.602 451.11 177.613 441.08L75.0221 372.369C61.8393 363.554 60.6211 355.763 72.0201 354.906L492.913 322.433C501.201 321.789 519.105 327.055 533.114 334.25L641.035 389.761C656.632 397.79 662.723 405.152 654.392 406.153L654.414 406.129Z" fill="#FDF5EC" stroke="url(#paint2_linear_92_77)" stroke-width="2" stroke-miterlimit="10"/>
<path d="M655.284 399.911L227.147 450.61C215.4 451.992 193.472 444.892 178.483 434.862L75.8922 366.151C62.7094 357.336 61.4912 349.545 72.8902 348.687L493.783 316.214C502.072 315.571 519.975 320.836 533.984 328.031L641.905 383.543C657.503 391.572 663.594 398.934 655.262 399.934L655.284 399.911Z" fill="#FDF5EC" stroke="url(#paint3_linear_92_77)" stroke-width="2" stroke-miterlimit="10"/>
<path d="M396.17 412.845C428.454 409.372 454.053 400.187 453.348 392.33C452.644 384.473 425.902 380.919 393.618 384.392C361.335 387.865 335.736 397.05 336.44 404.907C337.145 412.764 363.887 416.318 396.17 412.845Z" fill="white" stroke="url(#paint4_linear_92_77)" stroke-width="1.5" stroke-miterlimit="10"/>
<path d="M279.759 296.942C278.912 294.895 276.804 293.416 274.753 293.718C272.703 294.021 271.013 296.291 271.465 298.462C271.821 300.192 273.265 301.403 274.594 302.47C276.845 304.253 279.097 306.037 281.352 307.838" fill="#F7C7D9"/>
<path d="M280.361 296.654C279.482 294.631 277.505 292.964 275.226 292.996C273.108 293.018 271.313 294.685 270.849 296.704C270.281 299.162 271.908 301.11 273.666 302.559C276.061 304.537 278.531 306.428 280.972 308.362C281.646 308.902 282.415 307.799 281.74 307.258C279.843 305.742 277.932 304.247 276.036 302.73C274.541 301.546 272.364 300.189 272.093 298.115C271.869 296.416 273.166 294.599 274.865 294.357C276.76 294.1 278.43 295.564 279.153 297.212C279.51 298.009 280.715 297.433 280.358 296.636L280.361 296.654Z" fill="black"/>
<path d="M279.911 296.879C279.514 294.918 281.064 292.782 283.129 292.458C285.194 292.134 287.353 293.696 287.591 295.685C287.769 297.226 286.957 298.703 286.179 300.064C284.591 302.81 283.003 305.557 281.415 308.303" fill="#F7C7D9"/>
<path d="M280.562 296.765C280.262 295.043 281.627 293.305 283.332 293.099C285.037 292.893 286.912 294.285 286.937 296.091C286.957 298.081 285.365 300.078 284.416 301.707C283.233 303.76 282.033 305.817 280.85 307.871C280.419 308.622 281.516 309.4 281.946 308.649C283.477 305.986 285.027 303.338 286.558 300.675C287.697 298.684 289.036 296.274 287.699 294.02C286.596 292.164 284.223 291.243 282.211 291.978C280.2 292.713 278.885 294.844 279.239 296.977C279.388 297.829 280.708 297.599 280.559 296.747L280.562 296.765Z" fill="black"/>
<path d="M394.323 153.146C403.383 152.628 418.181 153.612 424.075 161.102C429.968 168.593 427.689 179.928 419.109 185.738C413.361 189.636 405.839 190.936 398.626 192.014C359.28 197.878 319.385 200.6 279.663 200.103C274.653 200.04 269.149 199.756 265.641 196.85C262.504 194.24 261.851 190.222 261.377 186.499C260.679 180.914 260.28 174.623 264.657 170.25C268.534 166.381 274.929 165.247 280.816 164.402C320.511 158.676 360.516 154.695 400.587 152.483" fill="#F7C7D9"/>
<path d="M394.079 154.006C402.825 153.528 413.504 154.058 420.481 159.027C428.296 164.602 428.008 175.609 421.773 182.319C418.015 186.364 412.434 188.465 406.854 189.747C400.409 191.222 393.727 191.958 387.178 192.831C373.35 194.662 359.453 196.109 345.539 197.171C331.625 198.232 317.669 198.908 303.732 199.184C296.859 199.323 289.994 199.372 283.138 199.321C277.51 199.278 270.284 199.735 266.07 195.914C263.956 193.987 263.137 191.289 262.678 188.692C262.271 186.402 262 184.06 261.921 181.74C261.755 176.658 263.119 171.521 268.409 168.574C273.451 165.773 279.853 165.296 285.557 164.505C292.481 163.534 299.421 162.617 306.363 161.755C334.143 158.307 362.05 155.693 389.984 153.941C393.42 153.723 396.87 153.525 400.307 153.329C400.914 153.294 400.876 152.466 400.27 152.501C370.33 154.157 340.447 156.784 310.672 160.38C303.313 161.265 295.957 162.217 288.616 163.234C282.56 164.068 275.954 164.512 270.265 166.763C265.286 168.73 262.106 172.365 261.253 177.063C260.817 179.467 260.903 181.92 261.138 184.319C261.373 186.719 261.638 189.238 262.378 191.587C263.884 196.327 267.854 198.944 273.324 199.716C276.256 200.124 279.246 200.108 282.212 200.138C285.849 200.174 289.486 200.176 293.134 200.156C308.117 200.063 323.106 199.516 338.075 198.527C353.044 197.538 367.778 196.121 382.555 194.257C389.446 193.387 396.375 192.526 403.2 191.317C409.12 190.27 415.27 188.69 419.961 185.123C427.286 179.558 429.613 169.64 424.927 162.37C420.24 155.1 409.509 153.412 400.728 153.106C398.494 153.023 396.266 153.051 394.041 153.178C393.435 153.213 393.472 154.041 394.079 154.006Z" fill="#666666"/>
<path d="M211.75 80.6067C209.548 77.6539 205.868 76.2889 202.311 76.0717C198.754 75.8544 194.872 77.0648 193.469 80.7779C192.867 82.3667 192.683 84.0385 192.624 85.7207C192.553 87.8007 192.878 89.9108 193.85 91.7651C195.509 94.9313 199.006 96.8128 202.474 97.0355C205.654 97.2395 210.836 95.6253 211.137 91.7444C211.201 91.0186 210.872 90.3166 210.11 90.1462C209.474 90.0043 208.571 90.4562 208.526 91.181C208.359 93.4473 205.153 94.2917 203.313 94.3493C200.741 94.4332 198.017 93.1907 196.544 91.042C194.952 88.7019 195.015 85.3048 195.677 82.6474C195.936 81.6209 196.411 80.5993 197.247 79.9168C198.406 78.9621 199.968 78.7589 201.417 78.7431C204.297 78.7127 207.721 79.6961 209.515 82.1142C210.547 83.4955 212.783 82.006 211.75 80.6067Z" fill="#1D1D1D"/>
<path d="M217.69 77.3403C219.124 82.975 220.559 88.6276 221.993 94.2623C222.417 95.9513 224.959 95.075 224.535 93.386C223.101 87.7513 221.666 82.0987 220.232 76.464C219.807 74.775 217.265 75.6513 217.69 77.3403Z" fill="#1D1D1D"/>
<path d="M222.649 87.9775C226.13 88.1271 229.628 87.6621 232.963 86.5932C233.648 86.3712 234.028 85.5539 233.79 84.8825C233.553 84.211 232.777 83.8249 232.093 84.0469C228.985 85.0298 225.734 85.4257 222.485 85.28C221.768 85.2513 221.188 86.0265 221.23 86.7099C221.278 87.5012 221.931 87.9488 222.649 87.9775Z" fill="#1D1D1D"/>
<path d="M231.047 76.5475C231.769 82.5502 232.935 88.49 234.525 94.3318C234.984 96.0006 237.508 95.1254 237.067 93.4555C235.545 87.8442 234.412 82.1552 233.722 76.3851C233.51 74.6652 230.834 74.8096 231.047 76.5475Z" fill="#1D1D1D"/>
<path d="M246.645 93.217C245.97 89.7564 246.043 86.2503 246.91 82.8404C247.33 81.2085 247.873 79.5331 248.677 78.0403C249.353 76.7899 250.461 76.1811 251.901 76.3103C255.158 76.6 256.671 80.2985 257.745 82.9588C259.072 86.2355 259.782 89.676 259.836 93.2284C259.871 94.9771 262.544 94.7968 262.511 93.0661C262.457 89.8204 261.884 86.5702 260.82 83.4941C260.258 81.9037 259.555 80.34 258.767 78.8537C258.102 77.6305 257.383 76.4107 256.342 75.4632C254.22 73.5343 250.654 72.8664 248.217 74.5846C247.135 75.3362 246.451 76.4607 245.933 77.6473C245.239 79.1876 244.693 80.8091 244.292 82.4579C243.417 86.0307 243.323 89.7907 244.007 93.3952C244.14 94.1091 244.642 94.7104 245.426 94.6628C246.068 94.6238 246.815 93.9467 246.682 93.2328L246.645 93.217Z" fill="#1D1D1D"/>
<path d="M245.345 86.2386C249.78 85.8972 254.23 85.7895 258.677 85.9166C259.394 85.9453 259.973 85.1701 259.932 84.4867C259.885 83.7134 259.248 83.2467 258.513 83.2191C254.068 83.1099 249.618 83.2176 245.181 83.5411C243.47 83.663 243.616 86.3616 245.345 86.2386Z" fill="#1D1D1D"/>
<path d="M270.988 75.2776C273.881 80.7695 275.273 86.8941 275.005 93.1014C274.979 93.843 275.765 94.409 276.425 94.3689C277.209 94.3213 277.652 93.6626 277.68 92.939C277.972 86.2429 276.32 79.6828 273.224 73.7881C272.415 72.2488 270.198 73.7552 270.989 75.2955L270.988 75.2776Z" fill="#1D1D1D"/>
<path d="M263.101 75.9552L282.519 74.7763C284.249 74.6713 284.085 71.9738 282.356 72.0788L262.937 73.2577C261.207 73.3627 261.371 76.0602 263.101 75.9552Z" fill="#1D1D1D"/>
<path d="M105.586 131.69C96.4743 132.201 81.8172 134.375 76.8376 140.412C71.8579 146.448 75.5193 154.492 84.7814 157.885C90.9944 160.164 98.6778 160.371 106 160.452C146.002 160.869 186.2 158.94 225.807 154.685C230.81 154.147 236.268 153.405 239.42 150.937C242.232 148.722 242.397 145.728 242.42 142.966C242.447 138.828 242.075 134.199 237.167 131.433C232.825 128.994 226.297 128.79 220.318 128.756C179.963 128.47 139.524 129.497 99.2382 131.811" fill="#E6E6E6"/>
<path d="M105.15 130.9C96.0611 131.432 85.6191 132.956 78.9355 137.107C72.2518 141.259 71.9162 148.473 76.6486 153.37C83.0337 159.972 95.9467 160.399 107.46 160.491C123.053 160.622 138.645 160.396 154.237 159.824C169.83 159.251 185.404 158.322 200.905 157.051C208.729 156.411 216.543 155.671 224.349 154.854C229.637 154.3 235.703 153.77 239.624 151.237C243.545 148.705 243.555 144.738 243.489 141.445C243.422 138.153 242.986 134.502 239.645 131.806C236.303 129.111 230.943 128.272 225.645 128.033C218.55 127.704 211.303 127.865 204.188 127.884C172.982 127.946 141.728 128.782 110.571 130.373C106.628 130.572 102.705 130.792 98.7643 131.013C97.8845 131.062 97.9714 131.895 98.8512 131.846C127.276 130.218 155.784 129.212 184.268 128.855C191.54 128.76 198.817 128.71 206.081 128.705C212.718 128.702 219.482 128.512 226.066 128.881C232.203 129.218 237.878 130.598 240.324 134.26C242.379 137.34 242.32 141.019 242.056 144.33C241.929 146.114 241.537 148.013 239.968 149.587C238.217 151.361 235.206 152.368 232.081 152.979C225.559 154.261 218.372 154.641 211.652 155.264C197.518 156.57 183.338 157.6 169.124 158.319C154.911 159.037 140.67 159.489 126.434 159.628C119.472 159.695 112.504 159.705 105.545 159.626C99.2509 159.555 92.6553 159.422 86.8852 157.835C76.2757 154.921 71.2871 146.329 77.1411 139.878C82.3668 134.122 95.4663 132.27 105.233 131.7C106.113 131.651 106.026 130.818 105.147 130.867L105.15 130.9Z" fill="#666666"/>
<path d="M120.144 230.69C113.322 231.201 102.349 233.375 98.6216 239.412C94.8936 245.448 97.6347 253.492 104.569 256.885C109.22 259.164 114.972 259.37 120.453 259.452C150.401 259.869 180.494 257.94 210.145 253.685C213.891 253.147 217.977 252.405 220.337 249.937C222.442 247.722 222.565 244.728 222.583 241.966C222.603 237.828 222.324 233.199 218.65 230.433C215.399 227.994 210.512 227.79 206.036 227.756C175.825 227.47 145.551 228.497 115.391 230.811" fill="#E6E6E6"/>
<path d="M119.817 229.9C113.013 230.432 105.196 231.956 100.192 236.107C95.1885 240.259 94.9373 247.473 98.4801 252.37C103.26 258.972 112.927 259.399 121.547 259.491C133.22 259.622 144.893 259.396 156.566 258.824C168.239 258.251 179.898 257.322 191.503 256.051C197.36 255.411 203.21 254.671 209.053 253.854C213.013 253.3 217.554 252.77 220.489 250.237C223.424 247.705 223.432 243.738 223.382 240.445C223.332 237.153 223.006 233.502 220.505 230.806C218.003 228.111 213.99 227.272 210.024 227.033C204.712 226.704 199.287 226.865 193.961 226.884C170.599 226.946 147.201 227.782 123.875 229.373C120.923 229.572 117.987 229.792 115.037 230.013C114.378 230.062 114.443 230.895 115.102 230.846C136.382 229.218 157.724 228.212 179.048 227.855C184.492 227.76 189.94 227.71 195.378 227.705C200.346 227.702 205.41 227.512 210.339 227.881C214.934 228.218 219.182 229.598 221.014 233.26C222.551 236.34 222.507 240.019 222.31 243.33C222.215 245.114 221.921 247.013 220.747 248.587C219.436 250.361 217.182 251.368 214.842 251.979C209.959 253.261 204.579 253.641 199.548 254.264C188.967 255.57 178.351 256.6 167.711 257.319C157.07 258.037 146.409 258.489 135.751 258.628C130.539 258.695 125.323 258.705 120.113 258.626C115.401 258.555 110.463 258.422 106.144 256.835C98.2009 253.921 94.4663 245.329 98.8488 238.878C102.761 233.122 112.568 231.27 119.88 230.7C120.538 230.651 120.473 229.818 119.815 229.867L119.817 229.9Z" fill="#666666"/>
<defs>
<linearGradient id="paint0_linear_92_77" x1="-0.0938988" y1="168.548" x2="490.346" y2="168.548" gradientUnits="userSpaceOnUse">
<stop/>
</linearGradient>
<linearGradient id="paint1_linear_92_77" x1="31.993" y1="169.191" x2="459.695" y2="169.191" gradientUnits="userSpaceOnUse">
<stop/>
</linearGradient>
<linearGradient id="paint2_linear_92_77" x1="63.1445" y1="389.666" x2="659.221" y2="389.666" gradientUnits="userSpaceOnUse">
<stop/>
</linearGradient>
<linearGradient id="paint3_linear_92_77" x1="64.0364" y1="383.448" x2="660.113" y2="383.448" gradientUnits="userSpaceOnUse">
<stop/>
</linearGradient>
<linearGradient id="paint4_linear_92_77" x1="335.371" y1="398.591" x2="454.473" y2="398.591" gradientUnits="userSpaceOnUse">
<stop/>
</linearGradient>
</defs>
</svg>
