<?xml version="1.0" encoding="UTF-8"?>
<svg id="Layer_2" data-name="Layer 2" xmlns="http://www.w3.org/2000/svg" width="539.31" height="427.36" viewBox="0 0 539.31 427.36">
  <defs>
    <style>
      .cls-1 {
        fill: #1d1d1d;
      }

      .cls-1, .cls-2 {
        stroke-width: 0px;
      }

      .cls-2 {
        fill: #f7c7d9;
      }

      .cls-3 {
        fill: #fff5eb;
        stroke: #1d1d1d;
        stroke-miterlimit: 10;
        stroke-width: 3px;
      }
    </style>
  </defs>
  <g id="Layer_1-2" data-name="Layer 1">
    <path class="cls-3" d="M307.15,127.58c3.69-.84,9.19-1.49,14.24.9,11.42,5.39,12.01,23.28,12.72,58.85.38,18.82-.31,41.58-8.98,44.89-1.96.75-6.78,1.45-7.8,1.6-5.19.76-9.52.8-12.48.71"/>
    <path class="cls-1" d="M89.44,218.53c-8.64-15.21-16.39-30.99-21.95-47.6-5.46-16.31-8.74-33.34-8.64-50.57s3.31-33.63,10.86-48.62c6.39-12.69,15.84-23.71,27.26-32.15s24.19-14.2,37.77-17.51c13.95-3.4,28.5-3.95,42.71-1.89,15.37,2.23,30.27,7.35,43.85,14.86s26.22,17.74,36.58,29.67,18.7,25.72,24.76,40.33,10.11,30.64,11.57,46.65c.36,3.96.57,7.93.63,11.9.03,1.93,3.03,1.93,3,0-.26-16.53-3.08-33.01-8.32-48.69-5.15-15.41-12.58-30.1-22.22-43.18-9.6-13.02-21.34-24.36-34.8-33.36s-28.04-15.38-43.52-19.03-30.04-4.33-45.01-2.11c-14.09,2.09-27.83,6.9-40.08,14.18s-23.26,17.39-31.28,29.43c-9.18,13.78-14.2,29.89-15.99,46.27-1.89,17.35-.11,34.96,4.22,51.82,4.45,17.33,11.52,33.89,19.8,49.71,2.01,3.84,4.1,7.64,6.24,11.4.95,1.68,3.55.17,2.59-1.51h0Z"/>
    <path class="cls-1" d="M78.97,208.34c-9.09-15.68-17.27-31.97-23.12-49.15-5.73-16.83-9.18-34.45-9.02-52.27.15-17.28,3.64-34.75,11.67-50.14,6.8-13.03,16.78-24.25,28.7-32.81s25.41-14.49,39.59-17.85c14.64-3.47,29.87-4,44.75-1.88,16,2.28,31.55,7.48,45.77,15.16s27.61,18.19,38.56,30.53,19.65,26.44,26.09,41.53,10.67,31.6,12.2,48.12c.38,4.07.59,8.15.66,12.23.03,1.93,3.03,1.93,3,0-.28-17.04-3.26-34.04-8.77-50.17s-13.28-31.04-23.41-44.47c-10.12-13.41-22.45-25.03-36.52-34.23s-29.4-15.76-45.57-19.49-31.43-4.45-47.11-2.19c-14.71,2.12-29.08,7-41.95,14.45s-24.34,17.68-32.83,30.03c-9.69,14.09-15.07,30.67-17,47.57-2.05,17.92-.2,36.13,4.34,53.53,4.67,17.91,12.13,35,20.84,51.3,2.11,3.95,4.3,7.85,6.55,11.73.97,1.67,3.56.16,2.59-1.51h0Z"/>
    <path class="cls-3" d="M69.86,214.64c-3.04,1.97-7.15,5.33-8.92,10.56-3.99,11.81,7.73,25.02,31.32,50.95,12.48,13.72,28.35,29.52,36.39,25.86,1.81-.83,5.52-3.68,6.3-4.28,3.98-3.07,6.91-6.05,8.83-8.18"/>
    <path class="cls-3" d="M82.64,207.06c-8.17,1.66-11.39,4.87-12.79,7.59-5.66,11.03,11.08,29.09,31.32,50.95,23.84,25.74,31.88,26.37,36.55,25.48,7.08-1.35,11.98-7.28,14.96-12.09"/>
    <path class="cls-3" d="M292.12,131.61c7.34-4.82,12.05-4.92,15.04-4.03,12.12,3.62,12.39,28.61,12.72,58.85.39,35.6-5.22,41.95-9.37,44.74-6.3,4.24-14.21,3.65-19.89,2.46"/>
    <path class="cls-1" d="M148.67,286.6c5.65,12.14,9.53,25.09,11.53,38.33.5,3.33.91,6.69,1.12,10.05.18,2.94-.19,5.71-2.9,7.34-3.94,2.36-9.56,2.36-13.76.76-1.97-.75-3.8-2.04-4.83-3.91-1.29-2.36-.94-5.19.31-7.48,2.88-5.3,9.38-7.2,14.86-8.48,2.98-.7,6.18-1.16,9.19-.38,2.67.69,4.81,2.39,6.32,4.66,3.04,4.57,4.26,10.5,5.4,15.78,1.33,6.12,2.03,12.66.14,18.74-1.69,5.46-5.56,9.82-10.15,13.08s-10.16,5.82-15.55,8.02c-6.01,2.45-12.17,4.54-18.42,6.32-25.22,7.17-51.57,9.14-77.68,9.73-6.49.15-12.98.21-19.47.23-6.15.03-12.41-.2-18.45,1.11-5.19,1.12-10.21,3.56-13.28,8.03-2.57,3.73-3.84,8.82-2.49,13.24.63,2.06,1.82,3.89,3.49,5.25,1.49,1.21,3.62-.9,2.12-2.12-3.73-3.04-3.79-8.22-1.94-12.36,2.36-5.29,7.44-7.97,12.9-9.15,6.27-1.36,12.86-.98,19.24-1.01,6.87-.03,13.74-.11,20.61-.29,27.38-.73,55.09-3.1,81.32-11.45,6.45-2.05,12.81-4.45,18.96-7.27,5.3-2.43,10.51-5.36,14.72-9.45,4.43-4.3,7.19-9.76,7.96-15.89.84-6.67-.49-13.44-2.18-19.87-1.39-5.32-2.95-11.32-7.15-15.17-4.78-4.37-11.36-3.97-17.24-2.48s-12.39,3.77-15.64,9.32c-2.85,4.86-2.05,10.82,2.54,14.25,3.88,2.89,9.23,3.52,13.9,2.79,2.68-.42,5.41-1.35,7.44-3.21,2.33-2.13,2.87-5.22,2.72-8.24-.33-6.96-1.51-13.98-3.01-20.78s-3.57-13.68-6.12-20.27c-1.21-3.13-2.53-6.22-3.94-9.26-.81-1.75-3.4-.23-2.59,1.51h0Z"/>
    <path class="cls-1" d="M303.76,235.34c3.85,12.63,13.75,22.23,25.29,28.14,12.6,6.46,27.28,8.99,41.34,7.62,14.5-1.41,28.51-7.23,38.6-17.94,4.61-4.89,8.29-10.61,10.72-16.87,1.22-3.13,2.08-6.4,2.56-9.73s.84-7.22-.38-10.56c-2.23-6.11-9.05-8.25-14.92-6.29-2.85.95-5.56,2.71-6.84,5.52s-1.28,5.84-1.64,8.81c-.19,1.56-.52,3.09-1.11,4.55l2.89.8c1.3-4.76-2.43-9.24-5.92-11.97-3.73-2.92-8.82-5.41-13.64-4.05-5.18,1.46-9.03,6.68-9.09,12.03-.08,6.46,5.71,10.94,10.23,14.66,10.44,8.59,22.15,15.51,34.68,20.59s26.05,8.47,39.56,9.23c6.8.38,14.02-.22,20.07-3.59,5.09-2.83,9.4-7.82,10.61-13.61s-.78-10.97-5.34-14.41c-3.89-2.93-9.53-4.05-13.82-1.26-4.88,3.18-6.13,9.21-6.02,14.66.09,4.77.87,9.61,2.81,13.99,3.3,7.45,9.91,12.48,17.08,15.93,16.36,7.86,35.51,9.76,50.26,20.98,1.79,1.36,3.46,2.87,5.02,4.49,1.34,1.4,3.46-.73,2.12-2.12-12.09-12.59-29.88-16.38-45.76-21.89-7.02-2.44-14.35-5.3-19.93-10.37-6.03-5.48-8.44-13-8.6-21.01-.09-4.63.82-10.53,5.59-12.66,4.03-1.8,8.77.42,11.46,3.53,3.47,4.01,2.96,9.68.4,14.02-2.98,5.06-8.08,8.16-13.7,9.5-6.39,1.52-13.15.96-19.6.09-6.07-.82-12.09-2.09-17.99-3.77-11.95-3.4-23.38-8.51-33.88-15.14-5.32-3.35-10.39-7.08-15.15-11.19-3.99-3.44-8.52-7.63-6.63-13.4,1.42-4.34,5.81-7.52,10.41-6.43,4.15.98,8.38,3.86,10.7,7.46.94,1.46,1.64,3.16,1.16,4.91-.52,1.91,2.19,2.54,2.89.8,1.11-2.75,1.23-5.72,1.55-8.63.3-2.66.93-5.3,3.31-6.85,4.25-2.78,11.18-2.87,13.64,2.34,1.38,2.94,1.03,6.59.59,9.71-.42,2.96-1.18,5.87-2.2,8.67-2.14,5.87-5.56,11.27-9.77,15.87-18.18,19.86-49.88,22.54-73.65,11.93-12.16-5.43-23.09-14.79-27.08-27.87-.56-1.84-3.46-1.06-2.89.8h0Z"/>
    <path class="cls-3" d="M292.12,131.61c-3.91-3.89-10.87-5.61-16.3-3.54-7.63,2.9-10.05,12.44-13.56,27.1-6.37,26.63-3.81,45.4-2.38,53.3,3.48,19.34,9.01,22.9,10.94,23.96,3.6,1.97,12.47,4.9,19.8,1.2,0,0,.31-.13.53-.28,1.88-1.3,4.45-7.13,6.38-50.04,0,0,.37-8.27-1.22-34.06-.62-10.04-1.56-15.03-4.19-17.65Z"/>
    <g>
      <path class="cls-2" d="M283.18,173.51c-.38-4.79-1.02-9.57-1.91-14.29-.15-.78-.41-1.69-1.16-1.95-.47-.16-1,0-1.44.22-3.06,1.59-3.34,5.77-3.49,9.22-.34,8.16-2.16,16.18-3.04,24.3s-.75,16.62,2.61,24.07c3.67-3.62,5.47-8.77,6.19-13.87s.48-10.29.71-15.44c.19-4.3.7-8.58,1.52-12.8"/>
      <path class="cls-1" d="M284.68,173.51c-.24-3.01-.58-6.01-1.01-9-.21-1.43-.44-2.85-.69-4.27-.21-1.19-.34-2.54-1.15-3.5-1.62-1.93-4.27-.74-5.66.84s-1.96,3.71-2.22,5.78c-.32,2.46-.3,4.95-.54,7.42-.29,3.06-.73,6.09-1.2,9.12-.88,5.76-1.84,11.53-1.99,17.36-.17,6.37.67,12.72,3.26,18.57.4.9,1.74.93,2.36.3,4.99-5.05,6.61-12.14,7.03-19.01.24-3.94.14-7.89.33-11.83s.69-7.99,1.45-11.93c.36-1.89-2.53-2.69-2.89-.8-.72,3.73-1.22,7.5-1.47,11.29s-.18,7.56-.32,11.34c-.25,6.68-1.34,13.86-6.24,18.82l2.36.3c-4.04-9.13-3.07-19.5-1.65-29.1.75-5.04,1.62-10.07,2.06-15.15.18-2.11.15-4.26.43-6.36.21-1.58.6-3.45,1.9-4.51.3-.24.64-.58.82-.38.24.25.28,1.22.33,1.52.26,1.42.5,2.84.71,4.27.44,2.96.77,5.93,1.01,8.92.15,1.91,3.16,1.93,3,0h0Z"/>
    </g>
    <path class="cls-3" d="M82.64,207.06c-.02-5.51,3.47-11.58,8.5-13.88,7.07-3.23,15.14,1.9,27.41,9.94,22.28,14.61,33.27,29.82,37.67,36.47,10.76,16.25,9.48,22.66,8.9,24.76-1.08,3.92-5.02,12.19-12.43,14.65,0,0-.29.12-.55.17-2.14.38-7.8-2-38.13-31.35,0,0-5.85-5.66-22.23-25.21-6.38-7.61-9.13-11.84-9.14-15.54Z"/>
    <g>
      <path class="cls-2" d="M122.69,218.63c-3.97-2.72-8.08-5.23-12.31-7.5-.7-.38-1.57-.74-2.24-.33-.42.26-.63.77-.73,1.26-.69,3.38,2.38,6.23,4.97,8.51,6.13,5.39,11.22,11.85,16.99,17.64,5.76,5.79,12.46,11.03,20.36,13.1-.51-5.13-3.38-9.76-6.89-13.53s-7.7-6.85-11.56-10.26c-3.22-2.85-6.24-5.94-9-9.23"/>
      <path class="cls-1" d="M123.44,217.34c-2.43-1.66-4.92-3.25-7.45-4.76-1.2-.71-2.41-1.41-3.64-2.08s-2.47-1.52-3.88-1.35c-2.67.32-3.02,3.65-2.41,5.74.67,2.29,2.4,4.14,4.11,5.72,4.16,3.85,8.08,7.84,11.9,12.03s7.47,8.18,11.76,11.69c4.59,3.76,9.71,6.86,15.48,8.41.85.23,2.01-.45,1.9-1.45-.82-7.31-5.44-13.15-10.75-17.92-2.88-2.59-5.95-4.95-8.83-7.55s-5.74-5.56-8.31-8.62c-1.25-1.48-3.36.65-2.12,2.12,2.38,2.82,4.92,5.5,7.63,8s5.68,4.82,8.49,7.27c5.02,4.37,10.12,9.77,10.9,16.7l1.9-1.45c-9.1-2.45-16.24-8.94-22.53-15.65-3.46-3.7-6.78-7.54-10.36-11.13-1.68-1.68-3.48-3.22-5.2-4.85-1.37-1.3-3.05-2.93-3.21-4.93-.02-.2.05-1.19.04-1.19.35-.17,1.67.8,1.99.97,1.22.67,2.43,1.37,3.64,2.08,2.54,1.5,5.02,3.09,7.45,4.76,1.6,1.09,3.1-1.51,1.51-2.59h0Z"/>
    </g>
  </g>
</svg>