<?xml version="1.0" encoding="UTF-8"?>
<svg id="Layer_2" data-name="Layer 2" xmlns="http://www.w3.org/2000/svg" width="249.58" height="321.81" viewBox="0 0 249.58 321.81">
  <defs>
    <style>
      .cls-1 {
        fill: #fff1f0;
      }

      .cls-1, .cls-2 {
        stroke: #1d1d1d;
        stroke-miterlimit: 10;
        stroke-width: 4px;
      }

      .cls-3 {
        fill: #1d1d1d;
        stroke-width: 0px;
      }

      .cls-2 {
        fill: #f7c7d9;
      }
    </style>
  </defs>
  <g id="Layer_1-2" data-name="Layer 1">
    <path class="cls-1" d="M188.91,68.52c-24.5-26.64-64.27-30.36-94-19-2.36.9-43.45,17.29-52,54-6.24,26.76,7.14,54.37,21,83,5.95,12.29,9.91,17.66,15,32,4.06,11.44,10.29,28.31,10,50-.29,21.54-6.58,26.48-2,35,10.38,19.33,57.8,22.03,69,5,5.96-9.06-2.76-15.43-2-44,.71-26.71,9.11-45.02,11-49,5.25-11.04,7.9-11.57,18-27,12.98-19.82,22.82-34.86,26-52,3.97-21.44-2.1-48.55-20-68Z"/>
    <path class="cls-2" d="M125.22,156.14c-.46-.12-.29-1.48-.54-3.13-.75-4.93-4.65-8.18-5.72-9.06-3.07-2.55-9.86-6.24-14.59-3.39-3.13,1.89-3.85,5.73-4.17,7.45-.88,4.69.99,8.56,2.08,10.84,1.06,2.21,2.14,3.56,4.17,6.1,4.02,5.03,4.75,4.48,8.33,8.81,4.11,4.96,5.89,9.01,9.03,8.81.22-.01.39-.03.59-.09,1.01-.29,2.03-1.39,6.35-5.33.42-.38,1.7-1.57,4.33-3.87,0,0,2.23-1.95,10.25-8.32h0c5.61-6.36,6.39-7.23,6.95-8.81,1.48-4.24.28-10.7-4.17-13.55-5.3-3.4-12.9-.2-16.67,3.39-4.34,4.14-5.26,10.41-6.25,10.16Z"/>
    <path class="cls-3" d="M80.79,224.97c1.93,0,1.93-3,0-3s-1.93,3,0,3h0Z"/>
    <path class="cls-1" d="M86.91,247.52c-2.39,1.05-10.5,4.8-10,8,.4,2.53,5.99,3.58,14,5,4.94.88,11.71,1.75,24,2,6.77.14,5.51-.11,15,0,9.41.11,12.75.38,19,0,9.68-.59,14.77-.96,16-4,1.09-2.7-1.15-6.84-4-9-1.92-1.45-3.91-1.86-5-2"/>
    <path class="cls-1" d="M87.37,263.02c-2.39,1.05-10.5,4.8-10,8,.4,2.53,5.99,3.58,14,5,4.94.88,11.71,1.75,24,2,6.77.14,5.51-.11,15,0,9.41.11,12.75.38,19,0,9.68-.59,14.77-.96,16-4,1.09-2.7-1.15-6.84-4-9-1.92-1.45-3.91-1.86-5-2"/>
    <path class="cls-1" d="M87.37,280.02c-2.39,1.05-10.5,4.8-10,8,.4,2.53,5.99,3.58,14,5,4.94.88,11.71,1.75,24,2,6.77.14,5.51-.11,15,0,9.41.11,12.75.38,19,0,9.68-.59,14.77-.96,16-4,1.09-2.7-1.15-6.84-4-9-1.92-1.45-3.91-1.86-5-2"/>
    <path class="cls-3" d="M86.54,246.87c17.24,3.8,34.97,5.33,52.61,4.48,4.98-.24,9.94-.67,14.89-1.29,1.89-.23,1.91-3.24,0-3-17.25,2.13-34.79,2.04-52-.42-4.93-.7-9.84-1.6-14.7-2.67-1.88-.41-2.69,2.48-.8,2.89h0Z"/>
    <path class="cls-3" d="M112.24,248.54c-1.55-9.81-3.79-19.5-6.42-29.07-1.3-4.71-2.69-9.39-4.14-14.05-1.35-4.36-2.75-8.75-4.83-12.83-1.85-3.61-4.31-6.97-7.53-9.48-2.76-2.16-6.66-4.33-10.3-3.68-1.62.29-3.04,1.34-3.43,2.99-.47,1.97.77,3.79,2.28,4.93,3.04,2.29,7.17,2.67,10.8,1.93,9.61-1.95,14.8-11.04,19.05-18.99.91-1.7-1.68-3.22-2.59-1.51-3.34,6.24-6.98,13.27-13.69,16.45-2.92,1.38-6.37,1.9-9.48.89-1.07-.35-3.68-1.44-3.47-2.91.17-1.15,2.17-.93,2.95-.75,7.15,1.66,11.7,8.55,14.3,14.91,1.51,3.71,2.65,7.56,3.82,11.39,1.24,4.06,2.43,8.13,3.55,12.22,2.55,9.35,4.72,18.8,6.23,28.37.3,1.9,3.19,1.09,2.89-.8h0Z"/>
    <path class="cls-3" d="M140.12,247.87c1.62-8.92,3.89-17.71,6.55-26.38,1.34-4.35,2.77-8.68,4.27-12.98s2.8-8.26,4.61-12.2c3.18-6.94,8.28-13.41,15.94-15.52,1.3-.36,3.02-.75,4.3-.12,1.75.86-.95,2.48-1.77,2.87-3.3,1.57-7.21,1.48-10.68.55-8.76-2.35-13.83-10.04-18.32-17.33-1.01-1.64-3.61-.14-2.59,1.51,4.57,7.42,9.69,15,18.24,18.11,3.96,1.44,8.49,1.88,12.56.64,1.89-.57,3.88-1.48,5.13-3.06s1.41-3.62,0-5.11c-2.66-2.8-7.66-1.2-10.63.09-3.81,1.64-7.16,4.34-9.76,7.56-2.97,3.68-5.01,7.93-6.73,12.31-1.84,4.72-3.47,9.53-5.07,14.34-3.69,11.1-6.87,22.39-8.96,33.91-.34,1.89,2.55,2.7,2.89.8h0Z"/>
    <path class="cls-3" d="M87.49,281.66c1.93,0,1.93-3,0-3s-1.93,3,0,3h0Z"/>
    <path class="cls-3" d="M89.51,259.99c-.48.54-1.01,1.03-1.58,1.48l.3-.23c-.48.37-.98.69-1.5.98-.33.18-.59.54-.69.9s-.05.84.15,1.16c.45.7,1.32.94,2.05.54,1.26-.7,2.43-1.62,3.39-2.7.27-.3.44-.65.44-1.06,0-.37-.16-.81-.44-1.06s-.66-.46-1.06-.44-.8.14-1.06.44h0Z"/>
    <path class="cls-3" d="M87.18,249.44c1.93,0,1.93-3,0-3s-1.93,3,0,3h0Z"/>
    <path class="cls-3" d="M87.8,248.67c1.93,0,1.93-3,0-3s-1.93,3,0,3h0Z"/>
    <path class="cls-3" d="M155.62,249.44c1.93,0,1.93-3,0-3s-1.93,3,0,3h0Z"/>
    <path class="cls-3" d="M156.4,281.82c1.93,0,1.93-3,0-3s-1.93,3,0,3h0Z"/>
    <path class="cls-3" d="M88.63,248.77s.07-.06.11-.09l-.3.23c.29-.22.6-.39.93-.54l-.36.15c.57-.24,1.17-.37,1.79-.46l-.4.05c.45-.06.91-.09,1.37-.11.4-.02.78-.15,1.06-.44.26-.26.46-.69.44-1.06-.03-.78-.66-1.54-1.5-1.5-.92.05-1.86.12-2.75.36s-1.76.67-2.51,1.28c-.28.23-.44.71-.44,1.06,0,.37.16.81.44,1.06s.66.46,1.06.44c.42-.02.74-.17,1.06-.44h0Z"/>
    <path class="cls-3" d="M89.22,263.8c-.1.2-.11.24-.03.1-.15.17-.16.2-.06.08.21-.21-.25.12,0,0,.06-.03.11-.07.17-.1.15-.07.12-.06-.08.03.02-.04.24-.08.29-.1.6-.17,1.23-.28,1.85-.38.16-.03.32-.05.49-.08.09-.01.19-.03.28-.04.16-.02.19-.03.08-.01-.11.01-.08.01.08,0,.09-.01.19-.02.28-.03.16-.02.33-.04.49-.05.68-.07,1.36-.11,2.04-.13.78-.03,1.54-.67,1.5-1.5s-.66-1.53-1.5-1.5c-1.66.05-3.32.24-4.95.53-.75.14-1.47.28-2.18.59-.8.35-1.35.98-1.65,1.79-.27.74.3,1.68,1.05,1.85.85.19,1.56-.26,1.85-1.05h0Z"/>
    <path class="cls-3" d="M89.6,263.91c1.93,0,1.93-3,0-3s-1.93,3,0,3h0Z"/>
    <path class="cls-3" d="M89.6,260.91s-.05,0-.08,0c-.16,0-.32.03-.47.06-.03,0-.05.01-.08.02-.01,0-.02,0-.04.01-.12.05-.26.11-.37.16,0,0-.01,0-.02,0-.02.01-.05.02-.07.04-.01,0-.02.02-.04.03-.1.08-.21.16-.31.24,0,0-.01,0-.02.01-.02.02-.04.04-.06.06,0,0-.01.01-.01.02-.08.1-.16.21-.24.31,0,.01-.02.02-.02.04-.11.17-.17.36-.18.56-.04.2-.04.4.03.6.05.2.14.37.27.51.11.16.25.29.42.39l.36.15c.27.07.53.07.8,0l.36-.15c.23-.13.4-.31.54-.54,0-.02.02-.03.03-.05l-.23.3s.06-.07.09-.09l-.3.23s.08-.06.13-.07l-.36.15s.09-.03.14-.04l-.4.05s.09,0,.14,0c.21,0,.4-.04.58-.13.19-.06.35-.16.48-.31.15-.14.25-.3.31-.48.09-.18.14-.37.13-.58l-.05-.4c-.07-.25-.2-.47-.39-.66l-.3-.23c-.23-.14-.49-.2-.76-.2h0Z"/>
    <path class="cls-3" d="M88.63,281.43c.24-.29.47-.58.73-.85.11-.12.23-.23.35-.34.05-.04.42-.32.17-.15.3-.21.6-.39.93-.55.06-.03.42-.18.14-.07.17-.07.34-.13.51-.18.3-.1.61-.18.92-.24.21-.04.41-.08.62-.11-.24.03.33-.03.38-.04.79-.07,1.58-.08,2.37-.09s1.54-.69,1.5-1.5-.66-1.51-1.5-1.5c-1.74.01-3.55.06-5.22.63-.76.26-1.51.59-2.16,1.06-.72.52-1.3,1.12-1.85,1.81-.49.61-.64,1.53,0,2.12.55.5,1.59.65,2.12,0h0Z"/>
    <path class="cls-3" d="M95.83,278.84c1.93,0,1.93-3,0-3s-1.93,3,0,3h0Z"/>
    <path class="cls-3" d="M88.7,281.54c.12-.11.24-.21.36-.31.05-.04.47-.36.17-.14.26-.19.52-.37.79-.55.54-.35,1.11-.64,1.69-.91.16-.07.15-.06-.03.01.07-.03.15-.06.22-.09.15-.06.3-.11.45-.16.3-.1.61-.2.92-.28s.62-.15.94-.21c.16-.03.32-.06.47-.08-.41.05.12,0,.2-.01.78-.07,1.54-.64,1.5-1.5-.03-.75-.66-1.58-1.5-1.5-3.1.29-5.98,1.52-8.32,3.6-.59.52-.57,1.6,0,2.12.63.58,1.49.56,2.12,0h0Z"/>
    <path class="cls-3" d="M88.94,281.44c-.2.16.24-.17.28-.2.16-.11.33-.21.5-.3s.34-.18.52-.27c.04-.02.41-.18.17-.08.7-.29,1.43-.51,2.16-.7,1.61-.43,3.21-.81,4.73-1.51.71-.33.95-1.42.54-2.05-.48-.74-1.29-.89-2.05-.54-.09.04-.19.09-.28.13.12-.05.1-.04-.07.03-.19.07-.39.14-.58.21-.39.13-.79.25-1.19.36-.77.21-1.54.39-2.31.61-1.65.47-3.19,1.12-4.52,2.2-.61.5-.55,1.61,0,2.12.65.6,1.47.53,2.12,0h0Z"/>
    <path class="cls-3" d="M157.27,279.3c-2.59-1.13-5.26-1.86-8.06-2.22-.78-.1-1.53.76-1.5,1.5.04.9.66,1.39,1.5,1.5.18.02.18.02,0,0,.09.01.18.03.27.04.13.02.27.04.4.06.31.05.62.11.93.17.58.12,1.15.26,1.72.41s1.13.33,1.68.53c.3.1.6.21.89.33.13.05.25.1.38.15.16.07.17.07.02,0,.08.04.17.07.25.11.38.17.73.27,1.16.15.35-.1.73-.36.9-.69.34-.65.23-1.72-.54-2.05h0Z"/>
    <path class="cls-3" d="M157.14,262.05c-1.71-.64-3.43-1.41-5.29-1.46-.79-.02-1.54.71-1.5,1.5.04.83.66,1.47,1.5,1.5.21,0,.42.02.63.05l-.4-.05c1.47.21,2.87.84,4.26,1.36.35.13.85.03,1.16-.15s.61-.54.69-.9c.09-.38.07-.81-.15-1.16s-.51-.55-.9-.69h0Z"/>
    <path class="cls-3" d="M151.25,263.4c1.93,0,1.93-3,0-3s-1.93,3,0,3h0Z"/>
    <path class="cls-3" d="M156.13,264.95c1.93,0,1.93-3,0-3s-1.93,3,0,3h0Z"/>
    <path class="cls-3" d="M159.7,262.16c-2.44-.51-4.87-1.01-7.31-1.52-.77-.16-1.66.22-1.85,1.05-.17.75.23,1.67,1.05,1.85,2.44.51,4.87,1.01,7.31,1.52.77.16,1.66-.22,1.85-1.05.17-.75-.23-1.67-1.05-1.85h0Z"/>
    <path class="cls-3" d="M154.96,250.07h.08c-.13,0-.27.02-.4.04,1.33-.17,2.68-.21,4.02-.11.37.03.81-.19,1.06-.44s.46-.69.44-1.06-.14-.79-.44-1.06-.65-.41-1.06-.44c-1.51-.12-3-.03-4.5.17-.34.05-.73.41-.9.69-.19.32-.27.8-.15,1.16s.34.71.69.9l.36.15c.27.07.53.07.8,0h0Z"/>
    <path class="cls-3" d="M119.77,1.45c0,7.57,0,15.14,0,22.71,0,1.93,3,1.93,3,0,0-7.57,0-15.14,0-22.71,0-1.93-3-1.93-3,0h0Z"/>
    <path class="cls-3" d="M193.16,18.33c-3.78,6.56-7.56,13.12-11.33,19.68-.97,1.68,1.63,3.19,2.59,1.51,3.78-6.56,7.56-13.12,11.33-19.68.97-1.68-1.63-3.19-2.59-1.51h0Z"/>
    <path class="cls-3" d="M48.09,19.7c3.61,6.66,7.21,13.31,10.82,19.97.92,1.7,3.51.19,2.59-1.51-3.61-6.66-7.21-13.31-10.82-19.97-.92-1.7-3.51-.19-2.59,1.51h0Z"/>
    <path class="cls-3" d="M235.64,64.58c-6.41,4.03-12.81,8.07-19.22,12.1-1.63,1.03-.13,3.62,1.51,2.59,6.41-4.03,12.81-8.07,19.22-12.1,1.63-1.03.13-3.62-1.51-2.59h0Z"/>
    <path class="cls-3" d="M7.92,67.06c6.75,3.44,13.49,6.88,20.24,10.31,1.72.87,3.24-1.71,1.51-2.59-6.75-3.44-13.49-6.88-20.24-10.31-1.72-.87-3.24,1.71-1.51,2.59h0Z"/>
    <path class="cls-3" d="M248.13,122.02c-7.56-.4-15.12-.8-22.68-1.2-1.93-.1-1.92,2.9,0,3,7.56.4,15.12.8,22.68,1.2,1.93.1,1.92-2.9,0-3h0Z"/>
    <path class="cls-3" d="M24.14,121.92c-7.56.34-15.13.68-22.69,1.02-1.92.09-1.93,3.09,0,3,7.56-.34,15.13-.68,22.69-1.02,1.92-.09,1.93-3.09,0-3h0Z"/>
  </g>
</svg>